<svg width="92" height="42" viewBox="0 0 92 42" fill="none" xmlns="http://www.w3.org/2000/svg">
<path d="M75.1666 0.166687C70.5833 0.166687 66.8333 3.91669 66.8333 8.50002V16.8334C66.8333 21.4167 70.5833 25.1667 75.1666 25.1667H83.5V33.5H66.8333V41.8334H83.5C88.0833 41.8334 91.8333 38.0834 91.8333 33.5V25.1667C91.8333 20.5834 88.0833 16.8334 83.5 16.8334H75.1666V8.50002H91.8333V0.166687H75.1666ZM33.5 0.166687V41.8334H50.1666C54.75 41.8334 58.5 38.0834 58.5 33.5V8.50002C58.5 3.91669 54.75 0.166687 50.1666 0.166687H33.5ZM41.8333 8.50002H50.1666V33.5H41.8333V8.50002ZM8.49996 0.166687C3.91663 0.166687 0.166626 3.91669 0.166626 8.50002V41.8334H8.49996V25.1667H16.8333V41.8334H25.1666V8.50002C25.1666 3.91669 21.4166 0.166687 16.8333 0.166687H8.49996ZM8.49996 8.50002H16.8333V16.8334H8.49996V8.50002Z" fill="#E81515"/>
</svg>
