<svg width="60" height="60" viewBox="0 0 60 60" fill="none" xmlns="http://www.w3.org/2000/svg">
<path d="M44.1333 28.3667L49.3667 23.1333L36.8667 10.6333L31.6333 15.8667L17.8333 2.1C15.2333 -0.500003 11 -0.500003 8.4 2.1L2.06667 8.43333C-0.533334 11.0333 -0.533334 15.2667 2.06667 17.8667L15.8333 31.6333L0.5 47C0.166667 47.3333 0 47.7333 0 48.2V58.3333C0 59.2667 0.733333 60 1.66667 60H11.8C12.2333 60 12.6667 59.8333 12.9667 59.5L28.3667 44.1L42.1333 57.8667C46.5333 62.2667 51.3333 58.1 51.5667 57.8667L57.9 51.5333C60.5 48.9333 60.5 44.7 57.9 42.1L44.1333 28.3667ZM20.6 26.9L6.8 13.1333L13.1 6.8L17.3333 11.0333L15.7667 12.6667C15.1434 13.2899 14.7933 14.1352 14.7933 15.0167C14.7933 15.8981 15.1434 16.7434 15.7667 17.3667C16.3899 17.9899 17.2352 18.3401 18.1167 18.3401C18.9981 18.3401 19.8434 17.9899 20.4667 17.3667L22.0667 15.7667L26.9 20.6L20.6 26.9ZM46.8667 53.2L33.1 39.4333L39.4333 33.1L44.2667 37.9333L42.6667 39.5333C42.3581 39.8419 42.1133 40.2083 41.9462 40.6115C41.7792 41.0147 41.6933 41.4469 41.6933 41.8833C41.6933 42.3198 41.7792 42.7519 41.9462 43.1551C42.1133 43.5584 42.3581 43.9247 42.6667 44.2333C42.9753 44.5419 43.3416 44.7867 43.7449 44.9538C44.1481 45.1208 44.5802 45.2067 45.0167 45.2067C45.4531 45.2067 45.8853 45.1208 46.2885 44.9538C46.6917 44.7867 47.0581 44.5419 47.3667 44.2333L48.9667 42.6333L53.2 46.8667L46.8667 53.2ZM59.0333 13.4667C59.3423 13.1583 59.5875 12.792 59.7548 12.3887C59.922 11.9855 60.0081 11.5532 60.0081 11.1167C60.0081 10.6801 59.922 10.2478 59.7548 9.84458C59.5875 9.44134 59.3423 9.07504 59.0333 8.76666L51.2333 0.966663C49.6667 -0.600004 47.5 -3.55649e-06 46.5333 0.966663L40.4333 7.06666L52.9333 19.5667L59.0333 13.4667Z" fill="#E81515"/>
</svg>
