<svg width="40" height="25" viewBox="0 0 40 25" fill="none" xmlns="http://www.w3.org/2000/svg">
<path d="M1 1H38.5263V24H1V1Z" fill="white"/>
<path d="M1 1H11.2895V24H1V1ZM28.2368 1H38.5263V24H28.2368V1Z" fill="#D22F27"/>
<path d="M19.7631 18.5525V15.5262V18.5525ZM19.7631 15.5262H23.8789L23.3947 14.3157L25.8157 11.8946V10.0788H23.9999L21.5789 12.4999V8.26306L19.7631 6.44727M19.7631 15.5262H15.6473L16.1315 14.3157L13.7104 11.8946V10.0788H15.5262L17.9473 12.4999V8.26306L19.7631 6.44727" fill="#D22F27"/>
<path d="M19.7631 18.5525V15.5262M19.7631 15.5262H23.8789L23.3947 14.3157L25.8157 11.8946V10.0788H23.9999L21.5789 12.4999V8.26306L19.7631 6.44727L17.9473 8.26306V12.4999L15.5262 10.0788H13.7104V11.8946L16.1315 14.3157L15.6473 15.5262H19.7631Z" stroke="#D22F27" stroke-width="2" stroke-linecap="round" stroke-linejoin="round"/>
<path d="M1 1H38.5263V24H1V1Z" stroke="black" stroke-width="2" stroke-linecap="round" stroke-linejoin="round"/>
</svg>
