<svg width="45" height="42" viewBox="0 0 45 42" fill="none" xmlns="http://www.w3.org/2000/svg">
<rect width="44.4706" height="42" rx="13" fill="#E81515"/>
<path d="M11.3647 15.0294C11.3647 14.37 11.8994 13.8353 12.5589 13.8353H31.4177C32.0772 13.8353 32.6118 14.37 32.6118 15.0294V15.0294C32.6118 15.6889 32.0772 16.2236 31.4177 16.2236H12.5589C11.8994 16.2236 11.3647 15.6889 11.3647 15.0294V15.0294ZM11.3647 21C11.3647 20.3405 11.8994 19.8059 12.5589 19.8059H31.4177C32.0772 19.8059 32.6118 20.3405 32.6118 21V21C32.6118 21.6595 32.0772 22.1942 31.4177 22.1942H12.5589C11.8994 22.1942 11.3647 21.6595 11.3647 21V21ZM11.3647 26.9706C11.3647 26.3111 11.8994 25.7765 12.5589 25.7765H31.4177C32.0772 25.7765 32.6118 26.3111 32.6118 26.9706V26.9706C32.6118 27.6301 32.0772 28.1647 31.4177 28.1647H12.5589C11.8994 28.1647 11.3647 27.6301 11.3647 26.9706V26.9706Z" fill="white"/>
</svg>
