<svg width="68" height="62" viewBox="0 0 68 62" fill="none" xmlns="http://www.w3.org/2000/svg">
<path d="M21.6667 0.25C15.9425 0.250001 10.4526 2.52395 6.40499 6.57161C2.35733 10.6193 0.083374 16.1091 0.083374 21.8333C0.083374 27.5576 2.35733 33.0474 6.40499 37.0951C10.4526 41.1427 15.9425 43.4167 21.6667 43.4167H24.9659C24.6732 41.3715 24.6732 39.2951 24.9659 37.25H21.6667C17.578 37.25 13.6567 35.6257 10.7655 32.7346C7.87429 29.8434 6.25004 25.9221 6.25004 21.8333C6.25004 17.7446 7.87429 13.8233 10.7655 10.9321C13.6567 8.04092 17.578 6.41667 21.6667 6.41667H46.3334C48.6197 6.4162 50.8775 6.92427 52.9433 7.90408C55.0091 8.88389 56.831 10.3109 58.2772 12.0818C59.7234 13.8526 60.7576 15.923 61.3049 18.1428C61.8523 20.3627 61.899 22.6765 61.4417 24.9167C63.2583 26.6979 64.7467 28.7854 65.8385 31.0833C67.3992 27.7932 68.102 24.1617 67.8816 20.5269C67.6612 16.8921 66.5247 13.3721 64.5779 10.2947C62.6311 7.21725 59.9373 4.68241 56.7473 2.92614C53.5574 1.16986 49.9749 0.249249 46.3334 0.25H21.6667ZM46.3334 31.0833C43.8801 31.0833 41.5273 32.0579 39.7926 33.7926C38.0579 35.5273 37.0834 37.8801 37.0834 40.3333C37.0834 42.7866 38.0579 45.1394 39.7926 46.8741C41.5273 48.6088 43.8801 49.5833 46.3334 49.5833C48.7866 49.5833 51.1394 48.6088 52.8741 46.8741C54.6088 45.1394 55.5834 42.7866 55.5834 40.3333C55.5834 37.8801 54.6088 35.5273 52.8741 33.7926C51.1394 32.0579 48.7866 31.0833 46.3334 31.0833ZM30.9167 40.3333C30.9173 37.9296 31.4799 35.5593 32.5597 33.4118C33.6395 31.2642 35.2065 29.3989 37.1355 27.9648C39.0646 26.5307 41.3022 25.5675 43.6698 25.1522C46.0374 24.7369 48.4693 24.881 50.7713 25.5729C53.0733 26.2649 55.1816 27.4855 56.9278 29.1374C58.674 30.7893 60.0098 32.8266 60.8284 35.0866C61.6471 37.3466 61.9259 39.7668 61.6426 42.1538C61.3594 44.5407 60.5219 46.8284 59.197 48.8341L67.0133 56.6534L62.6535 61.0133L54.8341 53.197C52.5104 54.7329 49.814 55.6105 47.0314 55.7366C44.2488 55.8628 41.484 55.2326 39.0309 53.9133C36.5778 52.5939 34.5279 50.6345 33.0992 48.2434C31.6705 45.8523 30.9163 43.1188 30.9167 40.3333Z" fill="#E81515"/>
</svg>
