<svg width="60" height="58" viewBox="0 0 60 58" fill="none" xmlns="http://www.w3.org/2000/svg">
<path d="M6 58C4.35 58 2.937 57.2895 1.761 55.8685C0.585005 54.4475 -0.00199491 52.7413 5.09338e-06 50.75V7.25C5.09338e-06 5.25625 0.588005 3.54888 1.764 2.12788C2.94 0.706881 4.352 -0.00241051 6 6.1545e-06H54C55.65 6.1545e-06 57.063 0.710505 58.239 2.1315C59.415 3.5525 60.002 5.25867 60 7.25V50.75C60 52.7437 59.412 54.4511 58.236 55.8721C57.06 57.2931 55.648 58.0024 54 58H6ZM6 50.75H54V14.5H6V50.75Z" fill="#E81515"/>
</svg>
